<svg width="156" height="275" xmlns="http://www.w3.org/2000/svg" xmlns:xlink="http://www.w3.org/1999/xlink"><defs><linearGradient x1="41.918%" y1="-9.223%" x2="50%" y2="100%" id="a"><stop stop-color="#FFF" stop-opacity="0" offset="0%"/><stop stop-color="#FFF" offset="100%"/></linearGradient><ellipse id="b" cx="64.5" cy="25" rx="64.5" ry="25"/></defs><g fill="none" fill-rule="evenodd"><path d="M0 0l108.316 1.092 46.762 247.64h-.062c.041.367.062.735.062 1.105 0 13.826-28.878 25.034-64.5 25.034-35.262 0-63.915-10.982-64.491-24.615h-.009L0 0z" fill="url(#a)" opacity=".15"/><g transform="translate(26.078 224.871)"><mask id="c" fill="#fff"><use xlink:href="#b"/></mask><use fill="#FFF" opacity=".2" xlink:href="#b"/><path fill="#000" opacity=".1" mask="url(#c)" d="M69.475 38.407L67.529-11.47l67.765 13.676L83.364 25l-1.499 8.107z"/></g><path stroke="#000" fill="#F5F4E9" stroke-linejoin="bevel" d="M88.2 114.635l-28.908-9.764L82.196 236.72l3.034 13.296 8.24 7.901 1.184 4.025 5.638-6.812-6.821-6.819 2.04-15.814z"/><path fill="#000" opacity=".15" d="M79.792 121.77l8.027 86.678-1.51 11.568 8.034 14.962L90.018 245l10.274 11.82-6.046 6.035-2.201-4.972-10.467-7.225-1.786-16.866-10.965-10.84 5.574-16.166L59.292 104.87z"/><path stroke="#000" fill="#F5F4E9" d="M76.596 117.435L59.292 105.87v61h17z"/><path stroke="#000" stroke-width=".5" opacity=".15" d="M97.575 255.99l-3.33 3.815"/><path stroke="#000" fill="#F5F4E9" stroke-linejoin="bevel" d="M94.246 263.122l7.578-8.07-3.727-6.285 6.528-12.65-3.6-16.1 5.543-12.443 18.748-99.164-37.497 6.4 4.954 91.976-4.954 13.23 3.485 13.208-3.485 15.543 8.807 7.644z"/><path stroke="#000" fill="#F5F4E9" stroke-linejoin="bevel" d="M94.246 263.278l2.274-6.528-8.7-7.983 3.484-15.543-7.226-13.208 1.122-11.568-8.604-91.013-42.518 7.672 35.66 85.171-.823 13.25 9.197 11.514L77 250.29l14.305 8.135z"/><path fill="#000" opacity=".15" d="M78.112 235.042l12.754-1.818-3.418 15.543-10.45 1.522zM91.304 258.424l4.606-1.483-1.801 6.076zM91.304 233.224l13.321 2.892-6.528 12.651H87.819zM96.862 255.99l4.532-1.054-5.841 6.083zM68.827 222.951l15.105-2.935.646-11.247-14.84 1.51zM92.773 206.786l13.795.788-5.543 12.442H87.82z"/></g></svg>