<svg xmlns="http://www.w3.org/2000/svg" width="118" height="44" fill="none" viewBox="0 0 118 44">
  <path fill="#000" d="M6.638 35.188v-20.8h6.656v2.028H8.913v7.253h4.12v2.029h-4.12v9.49H6.638Zm8.379 0v-20.8h3.64c1.36 0 2.348.294 2.964.883.615.581.949 1.552 1 2.912.027.703.044 1.357.053 1.963a61.468 61.468 0 0 1-.052 3.537c-.035.91-.195 1.642-.481 2.197a2.552 2.552 0 0 1-1.326 1.209l2.184 8.099H20.58l-1.924-7.71h-1.365v7.71h-2.275Zm2.275-9.738h1.339c.58 0 1.005-.134 1.274-.402.268-.278.416-.698.442-1.261a72.715 72.715 0 0 0 0-5.72c-.026-.564-.174-.98-.442-1.248-.26-.27-.676-.403-1.248-.403h-1.365v9.035Zm7.627 9.738v-20.8h6.656v2.028h-4.38v7.253h4.12v2.029h-4.12v7.462h4.38v2.028H24.92Zm8.531 0v-20.8h6.656v2.028h-4.38v7.253h4.12v2.029h-4.12v7.462h4.38v2.028H33.45Zm12.146.194c-1.37 0-2.353-.298-2.951-.896-.59-.607-.915-1.6-.975-2.977l-.026-1.326c0-.416.004-.832.013-1.248.017-.416.039-.863.065-1.34h2.158a62.587 62.587 0 0 0-.065 2.198c0 .719.021 1.416.065 2.093.026.546.173.948.442 1.208.268.26.693.39 1.274.39.554 0 .953-.13 1.196-.39.25-.26.398-.663.442-1.209a25.44 25.44 0 0 0 .052-2.301c-.01-.38-.026-.81-.052-1.287-.026-.572-.126-1.057-.3-1.456-.164-.407-.485-.671-.961-.793l-1.547-.402c-.728-.183-1.292-.451-1.69-.806-.39-.364-.668-.832-.832-1.404-.165-.573-.26-1.266-.286-2.08a98.099 98.099 0 0 1-.013-1.639l.026-1.69c.034-.91.182-1.646.442-2.21a2.38 2.38 0 0 1 1.248-1.235c.572-.26 1.33-.39 2.275-.39 1.317 0 2.27.3 2.86.897.598.598.923 1.586.975 2.964.017.451.021 1.006.013 1.665a83.6 83.6 0 0 1-.052 2.027h-2.184c.026-.675.043-1.352.052-2.027.008-.685 0-1.366-.026-2.041-.026-.546-.174-.95-.442-1.21-.27-.26-.676-.39-1.222-.39-.572 0-.984.13-1.235.39-.252.26-.395.664-.43 1.21a25.74 25.74 0 0 0-.064 1.832c.008.616.03 1.231.065 1.846.026.66.12 1.17.286 1.535.173.363.51.606 1.014.727l1.43.351c.754.174 1.334.451 1.742.832.407.373.693.85.858 1.43.164.572.26 1.261.286 2.067a31.084 31.084 0 0 1 .013 2.145c-.01.313-.018.668-.026 1.067-.052 1.377-.377 2.37-.975 2.977-.598.598-1.578.897-2.938.897Zm6.11-.194v-20.8h3.64c1.36 0 2.349.294 2.964.883.616.581.95 1.552 1.001 2.912a86.8 86.8 0 0 1 .052 2.848c0 .84-.017 1.711-.052 2.613-.052 1.352-.385 2.322-1 2.912-.616.589-1.613.883-2.99.883h-1.34v7.748h-2.275Zm2.275-9.777h1.34c.58 0 1.005-.134 1.273-.402.269-.278.416-.694.442-1.248a67.223 67.223 0 0 0 .052-3.796 67.258 67.258 0 0 0-.052-1.898c-.026-.564-.173-.98-.442-1.248-.26-.27-.676-.403-1.248-.403h-1.365v8.995Zm6.174 9.776 2.38-20.8h3.964l2.38 20.8H66.55l-.52-5.615h-3.04l-.507 5.616h-2.327Zm3.055-7.643h2.613l-.429-4.55-.507-6.578h-.728l-.52 6.578-.429 4.55Zm11.043 7.851c-1.387 0-2.38-.299-2.977-.897-.59-.597-.897-1.59-.923-2.976A409.966 409.966 0 0 1 70.3 24.8a441.133 441.133 0 0 1 .052-6.747c.026-1.248.342-2.202.949-2.86.607-.66 1.586-.989 2.938-.989s2.331.3 2.938.897c.615.59.94 1.573.975 2.951.009.321.013.711.013 1.17 0 .46-.004.92-.013 1.379 0 .45-.004.836-.013 1.157h-2.275l.026-1.326a76.24 76.24 0 0 0 0-2.756c-.009-.555-.147-.958-.416-1.21-.26-.25-.672-.377-1.235-.377-.546 0-.95.126-1.21.378-.25.25-.385.654-.402 1.209a498.994 498.994 0 0 0-.065 3.575 480.851 480.851 0 0 0 0 7.098c.017 1.178.039 2.361.065 3.548.017.564.156.976.416 1.235.26.252.663.377 1.209.377.598 0 1.036-.125 1.313-.377.277-.26.42-.671.429-1.235a84.905 84.905 0 0 0 0-2.886c0-.502-.004-.97-.013-1.404h2.262c.026.66.039 1.314.039 1.963 0 .65-.009 1.3-.026 1.95-.035 1.387-.364 2.38-.988 2.977-.615.599-1.62.898-3.016.898Zm6.22-.208v-20.8h6.657v2.029h-4.381v7.253h4.12v2.029h-4.12v7.462h4.38v2.028h-6.655Z"/>
  <path stroke="#000" stroke-dasharray="2 2" stroke-width=".8" d="M75.5 33.5c1.5 3 .025.893 3.187 5.109 3.952 5.27 9.88 4.61 11.856 3.952 1.976-.659 7.246-4.611 9.88-12.515 2.635-7.904-1.317-11.856-7.904-7.904s-4.61 10.538-3.952 11.856c.659 1.317 4.61 5.27 11.198 5.27 6.587 0 12.515-1.977 15.808-6.588 3.293-4.61.659-13.832-.659-15.808-1.317-1.976-3.952-6.587-10.538-5.928"/>
  <path stroke="#000" stroke-width=".8" d="M101.03 10.88 87.197 1.658l15.809 6.587m-2.635 5.27 3.293 2.634M85.88 1l13.174 18.443 1.976-8.563"/>
  <path stroke="#000" stroke-width=".8" d="m101.03 10.88 2.634 5.27-.658-7.905 5.928-1.317L85.88 1"/>
</svg>

